<svg xmlns="http://www.w3.org/2000/svg" width="1024" height="1024" viewBox="0 0 1024 1024">
  <defs>
    <linearGradient id="fill" x1="0.15" y1="0" x2="0.85" y2="1">
      <stop offset="0" stop-color="#3FC3FF"/>
      <stop offset="0.5" stop-color="#4A63FF"/>
      <stop offset="1" stop-color="#7B3BF5"/>
    </linearGradient>
    <radialGradient id="glow" cx="0.28" cy="0.12" r="0.75">
      <stop offset="0" stop-color="#FFFFFF" stop-opacity="0.38"/>
      <stop offset="1" stop-color="#FFFFFF" stop-opacity="0"/>
    </radialGradient>
    <linearGradient id="rim" x1="0" y1="0" x2="0" y2="1">
      <stop offset="0" stop-color="#FFFFFF" stop-opacity="0.65"/>
      <stop offset="0.5" stop-color="#FFFFFF" stop-opacity="0.08"/>
      <stop offset="1" stop-color="#FFFFFF" stop-opacity="0.18"/>
    </linearGradient>
    <linearGradient id="panel" x1="0" y1="0" x2="0" y2="1">
      <stop offset="0" stop-color="#FFFFFF" stop-opacity="0.30"/>
      <stop offset="1" stop-color="#FFFFFF" stop-opacity="0.12"/>
    </linearGradient>
    <linearGradient id="panelRim" x1="0" y1="0" x2="0" y2="1">
      <stop offset="0" stop-color="#FFFFFF" stop-opacity="0.75"/>
      <stop offset="1" stop-color="#FFFFFF" stop-opacity="0.10"/>
    </linearGradient>
    <linearGradient id="chevron" gradientUnits="userSpaceOnUse" x1="0" y1="350" x2="0" y2="674">
      <stop offset="0" stop-color="#FFFFFF" stop-opacity="0.46"/>
      <stop offset="1" stop-color="#FFFFFF" stop-opacity="0.22"/>
    </linearGradient>
    <linearGradient id="chevronRim" gradientUnits="userSpaceOnUse" x1="0" y1="350" x2="0" y2="674">
      <stop offset="0" stop-color="#FFFFFF" stop-opacity="0.75"/>
      <stop offset="1" stop-color="#FFFFFF" stop-opacity="0.10"/>
    </linearGradient>
    <mask id="chevronEdge" maskUnits="userSpaceOnUse" x="0" y="0" width="1024" height="1024">
      <rect width="1024" height="1024" fill="#FFFFFF"/>
      <path d="M242 392 L362 512 L242 632" fill="none" stroke="#000000" stroke-width="74" stroke-linecap="round" stroke-linejoin="round"/>
    </mask>
    <filter id="chevronShadow" filterUnits="userSpaceOnUse" x="100" y="250" width="420" height="560">
      <feDropShadow dx="0" dy="22" stdDeviation="26" flood-color="#1B1470" flood-opacity="0.45"/>
    </filter>
    <filter id="tileShadow" x="-20%" y="-20%" width="140%" height="140%">
      <feDropShadow dx="0" dy="14" stdDeviation="14" flood-color="#000000" flood-opacity="0.30"/>
    </filter>
    <filter id="panelShadow" x="-30%" y="-30%" width="160%" height="160%">
      <feDropShadow dx="0" dy="22" stdDeviation="26" flood-color="#1B1470" flood-opacity="0.45"/>
    </filter>
    <filter id="glyphShadow" x="-30%" y="-30%" width="160%" height="160%">
      <feDropShadow dx="0" dy="10" stdDeviation="12" flood-color="#1B1470" flood-opacity="0.40"/>
    </filter>
  </defs>
  <rect width="1024" height="1024" fill="url(#fill)"/>
  <rect width="1024" height="1024" fill="url(#glow)"/>
  <g transform="translate(512 512) scale(1.2427) translate(-512 -512)">
    <g filter="url(#panelShadow)">
      <rect x="442" y="282" width="380" height="460" rx="76" fill="url(#panel)"/>
    </g>
    <rect x="444.500" y="284.500" width="375" height="455" rx="73.500" fill="none" stroke="url(#panelRim)" stroke-width="5"/>
    <rect x="492" y="354" width="200" height="76" rx="38" fill="#FFFFFF" fill-opacity="0.55"/>
    <rect x="492" y="594" width="240" height="76" rx="38" fill="#FFFFFF" fill-opacity="0.55"/>
    <g filter="url(#glyphShadow)">
      <rect x="492" y="474" width="280" height="76" rx="38" fill="#FFFFFF"/>
    </g>
    <g filter="url(#chevronShadow)">
      <path d="M242 392 L362 512 L242 632" fill="none" stroke="url(#chevron)" stroke-width="84" stroke-linecap="round" stroke-linejoin="round"/>
    </g>
    <path d="M242 392 L362 512 L242 632" fill="none" stroke="url(#chevronRim)" stroke-width="84" stroke-linecap="round" stroke-linejoin="round" mask="url(#chevronEdge)"/>
  </g>
</svg>
