<svg xmlns="http://www.w3.org/2000/svg" width="1024" height="1024" viewBox="0 0 1024 1024">
  <defs>
    <linearGradient id="fill" x1="0" y1="0" x2="0" y2="1">
      <stop offset="0" stop-color="#3A3C45"/>
      <stop offset="1" stop-color="#0C0D10"/>
    </linearGradient>
    <radialGradient id="sheen" cx="0.25" cy="0" r="0.95">
      <stop offset="0" stop-color="#FFFFFF" stop-opacity="0.30"/>
      <stop offset="0.6" stop-color="#FFFFFF" stop-opacity="0"/>
    </radialGradient>
    <linearGradient id="rim" x1="0.1" y1="0" x2="0.9" y2="1">
      <stop offset="0" stop-color="#FFFFFF" stop-opacity="0.95"/>
      <stop offset="0.32" stop-color="#FFFFFF" stop-opacity="0.05"/>
      <stop offset="0.68" stop-color="#FFFFFF" stop-opacity="0.05"/>
      <stop offset="1" stop-color="#FFFFFF" stop-opacity="0.6"/>
    </linearGradient>
    <linearGradient id="panel" x1="0" y1="0" x2="0" y2="1">
      <stop offset="0" stop-color="#FFFFFF" stop-opacity="0.30"/>
      <stop offset="1" stop-color="#FFFFFF" stop-opacity="0.12"/>
    </linearGradient>
    <linearGradient id="selected" x1="0" y1="0" x2="0" y2="1">
      <stop offset="0" stop-color="#2B95FF"/>
      <stop offset="1" stop-color="#0A78F5"/>
    </linearGradient>
    <linearGradient id="chevron" gradientUnits="userSpaceOnUse" x1="0" y1="350" x2="0" y2="674">
      <stop offset="0" stop-color="#FFFFFF" stop-opacity="0.70"/>
      <stop offset="1" stop-color="#FFFFFF" stop-opacity="0.40"/>
    </linearGradient>
    <linearGradient id="chevronRim" gradientUnits="userSpaceOnUse" x1="200" y1="350" x2="400" y2="674">
      <stop offset="0" stop-color="#FFFFFF" stop-opacity="0.95"/>
      <stop offset="0.4" stop-color="#FFFFFF" stop-opacity="0.10"/>
      <stop offset="1" stop-color="#FFFFFF" stop-opacity="0.55"/>
    </linearGradient>
    <mask id="chevronEdge" maskUnits="userSpaceOnUse" x="0" y="0" width="1024" height="1024">
      <rect width="1024" height="1024" fill="#FFFFFF"/>
      <path d="M242 392 L362 512 L242 632" fill="none" stroke="#000000" stroke-width="72" stroke-linecap="round" stroke-linejoin="round"/>
    </mask>
    <filter id="tileShadow" x="-20%" y="-20%" width="140%" height="140%">
      <feDropShadow dx="0" dy="14" stdDeviation="14" flood-color="#000000" flood-opacity="0.30"/>
    </filter>
    <filter id="layerShadow" x="-40%" y="-40%" width="180%" height="180%">
      <feDropShadow dx="0" dy="26" stdDeviation="28" flood-color="#000000" flood-opacity="0.42"/>
    </filter>
    <filter id="rowShadow" x="-40%" y="-40%" width="180%" height="180%">
      <feDropShadow dx="0" dy="12" stdDeviation="12" flood-color="#000000" flood-opacity="0.38"/>
    </filter>
  </defs>
  <rect width="1024" height="1024" fill="url(#fill)"/>
  <rect width="1024" height="1024" fill="url(#sheen)"/>
  <g transform="translate(512 512) scale(1.2427) translate(-512 -512)">
    <g filter="url(#layerShadow)">
      <rect x="442" y="282" width="380" height="460" rx="76" fill="url(#panel)"/>
    </g>
    <rect x="445" y="285" width="374" height="454" rx="73" fill="none" stroke="url(#rim)" stroke-width="6"/>
    <g filter="url(#rowShadow)">
      <rect x="492" y="354" width="280" height="76" rx="38" fill="url(#selected)"/>
    </g>
    <rect x="494" y="356" width="276" height="72" rx="36" fill="none" stroke="url(#rim)" stroke-width="4" stroke-opacity="0.7"/>
    <rect x="492" y="474" width="280" height="76" rx="38" fill="#FFFFFF" fill-opacity="0.50"/>
    <rect x="492" y="594" width="280" height="76" rx="38" fill="#FFFFFF" fill-opacity="0.50"/>
    <g filter="url(#layerShadow)">
      <path d="M242 392 L362 512 L242 632" fill="none" stroke="url(#chevron)" stroke-width="84" stroke-linecap="round" stroke-linejoin="round"/>
    </g>
    <path d="M242 392 L362 512 L242 632" fill="none" stroke="url(#chevronRim)" stroke-width="84" stroke-linecap="round" stroke-linejoin="round" mask="url(#chevronEdge)"/>
  </g>
</svg>
